<svg width="35" height="35" viewBox="0 0 35 35" fill="none" xmlns="http://www.w3.org/2000/svg">
<path fill-rule="evenodd" clip-rule="evenodd" d="M17.3975 3C16.1154 6.22427 15.3421 8.33332 13.9146 11.4617C14.7898 12.4133 15.8641 13.5215 17.6088 14.7731C15.7331 13.9814 14.4536 13.1866 13.4975 12.3618C11.6706 16.272 8.80838 21.8418 3 32.5467C7.56519 29.8433 11.104 28.1767 14.4021 27.5407C14.2605 26.916 14.1799 26.2401 14.1854 25.535L14.1908 25.385C14.2633 22.385 15.7847 20.078 17.5871 20.2346C19.3894 20.3913 20.7904 22.9517 20.7179 25.9517C20.7043 26.5162 20.6422 27.0593 20.5338 27.5629C23.796 28.2175 27.297 29.8799 31.8004 32.5467C30.9124 30.8698 30.1198 29.3582 29.3629 27.9185C28.1707 26.9707 26.9271 25.7371 24.3904 24.4016C26.134 24.8663 27.3823 25.4024 28.3554 26.0017C20.6597 11.3052 20.0365 9.35232 17.3975 3Z" fill="#1793D1"/>
</svg>
